<svg width="805" height="752" viewBox="0 0 805 752" fill="none" xmlns="http://www.w3.org/2000/svg">
<g filter="url(#filter0_d_100_2618)">
<g clip-path="url(#clip0_100_2618)">
<rect x="44" y="15" width="1084.96" height="664.538" rx="8.47624" fill="white"/>
<rect x="-169" y="37" width="1084.96" height="619.613" fill="white"/>
<g filter="url(#filter1_di_100_2618)">
<path d="M44 23.4763C44 18.795 47.7949 15 52.4762 15H1120.48C1125.16 15 1128.96 18.7949 1128.96 23.4762V59.9241H44V23.4763Z" fill="#00B6EF"/>
<g clip-path="url(#clip1_100_2618)">
<path d="M173.91 42.962L168.331 37.5162C168.197 37.3825 168.127 37.2207 168.127 37.0448C168.127 36.8618 168.204 36.6859 168.338 36.5734L173.91 31.1205C174.03 31.0009 174.185 30.9305 174.368 30.9305C174.734 30.9305 175.008 31.212 175.008 31.5778C175.008 31.7467 174.938 31.9156 174.825 32.0352L169.703 37.0448L174.825 42.0544C174.938 42.174 175.008 42.3358 175.008 42.5117C175.008 42.8776 174.734 43.152 174.368 43.152C174.185 43.152 174.03 43.0816 173.91 42.962Z" fill="#737373"/>
<path d="M196.739 43.159C196.922 43.159 197.077 43.0887 197.196 42.969L202.776 37.5162C202.909 37.3825 202.98 37.2207 202.98 37.0448C202.98 36.8618 202.909 36.693 202.776 36.5734L197.203 31.1275C197.077 31.0009 196.922 30.9305 196.739 30.9305C196.373 30.9305 196.099 31.212 196.099 31.5778C196.099 31.7467 196.169 31.9156 196.281 32.0352L201.404 37.0448L196.281 42.0544C196.169 42.174 196.099 42.3358 196.099 42.5117C196.099 42.8776 196.373 43.159 196.739 43.159Z" fill="#BFBFBF"/>
</g>
<path d="M129.881 43.5317H142.053C143.531 43.5317 144.263 42.7999 144.263 41.3505V32.7596C144.263 31.3102 143.531 30.5785 142.053 30.5785H129.881C128.411 30.5785 127.672 31.3032 127.672 32.7596V41.3505C127.672 42.807 128.411 43.5317 129.881 43.5317ZM129.895 42.3989C129.192 42.3989 128.805 42.026 128.805 41.2942V32.8159C128.805 32.0842 129.192 31.7113 129.895 31.7113H133.033V42.3989H129.895ZM142.039 31.7113C142.736 31.7113 143.13 32.0842 143.13 32.8159V41.2942C143.13 42.026 142.736 42.3989 142.039 42.3989H134.138V31.7113H142.039ZM131.675 34.3216C131.893 34.3216 132.076 34.1316 132.076 33.9276C132.076 33.7165 131.893 33.5336 131.675 33.5336H130.17C129.959 33.5336 129.769 33.7165 129.769 33.9276C129.769 34.1316 129.959 34.3216 130.17 34.3216H131.675ZM131.675 36.1439C131.893 36.1439 132.076 35.954 132.076 35.7429C132.076 35.5318 131.893 35.3559 131.675 35.3559H130.17C129.959 35.3559 129.769 35.5318 129.769 35.7429C129.769 35.954 129.959 36.1439 130.17 36.1439H131.675ZM131.675 37.9592C131.893 37.9592 132.076 37.7833 132.076 37.5722C132.076 37.3611 131.893 37.1782 131.675 37.1782H130.17C129.959 37.1782 129.769 37.3611 129.769 37.5722C129.769 37.7833 129.959 37.9592 130.17 37.9592H131.675Z" fill="#737373"/>
<g filter="url(#filter2_i_100_2618)">
<path fill-rule="evenodd" clip-rule="evenodd" d="M66.8859 42.1243C69.6947 42.1243 71.9717 39.8473 71.9717 37.0386C71.9717 34.2298 69.6947 31.9528 66.8859 31.9528C64.0771 31.9528 61.8002 34.2298 61.8002 37.0386C61.8002 39.8473 64.0771 42.1243 66.8859 42.1243Z" fill="#EE6A5F"/>
</g>
<path d="M71.7598 37.0386C71.7598 39.7303 69.5777 41.9124 66.8859 41.9124C64.1942 41.9124 62.0121 39.7303 62.0121 37.0386C62.0121 34.3468 64.1942 32.1647 66.8859 32.1647C69.5777 32.1647 71.7598 34.3468 71.7598 37.0386Z" stroke="#CE5347" stroke-width="0.423812"/>
<g filter="url(#filter3_i_100_2618)">
<path fill-rule="evenodd" clip-rule="evenodd" d="M83.8384 42.1245C86.6472 42.1245 88.9242 39.8475 88.9242 37.0387C88.9242 34.23 86.6472 31.953 83.8384 31.953C81.0297 31.953 78.7527 34.23 78.7527 37.0387C78.7527 39.8475 81.0297 42.1245 83.8384 42.1245Z" fill="#F5BD4F"/>
</g>
<path d="M88.7123 37.0387C88.7123 39.7305 86.5302 41.9126 83.8384 41.9126C81.1467 41.9126 78.9646 39.7305 78.9646 37.0387C78.9646 34.347 81.1467 32.1649 83.8384 32.1649C86.5302 32.1649 88.7123 34.347 88.7123 37.0387Z" stroke="#D6A243" stroke-width="0.423812"/>
<g filter="url(#filter4_i_100_2618)">
<path fill-rule="evenodd" clip-rule="evenodd" d="M100.791 42.1245C103.6 42.1245 105.877 39.8475 105.877 37.0387C105.877 34.23 103.6 31.953 100.791 31.953C97.9822 31.953 95.7052 34.23 95.7052 37.0387C95.7052 39.8475 97.9822 42.1245 100.791 42.1245Z" fill="#61C454"/>
</g>
<path d="M105.665 37.0387C105.665 39.7305 103.483 41.9126 100.791 41.9126C98.0992 41.9126 95.9171 39.7305 95.9171 37.0387C95.9171 34.347 98.0992 32.1649 100.791 32.1649C103.483 32.1649 105.665 34.347 105.665 37.0387Z" stroke="#58A942" stroke-width="0.423812"/>
<g clip-path="url(#clip2_100_2618)">
<path d="M346.178 44.3404C346.291 44.3404 346.474 44.2982 346.649 44.1997C350.653 41.9552 352.025 41.0054 352.025 38.4373V33.0548C352.025 32.316 351.708 32.0838 351.11 31.8305C350.28 31.4857 347.599 30.5218 346.769 30.2333C346.579 30.17 346.375 30.1278 346.178 30.1278C345.981 30.1278 345.777 30.1841 345.594 30.2333C344.764 30.4726 342.076 31.4928 341.246 31.8305C340.655 32.0768 340.331 32.316 340.331 33.0548V38.4373C340.331 41.0054 341.71 41.9482 345.707 44.1997C345.89 44.2982 346.065 44.3404 346.178 44.3404ZM346.459 31.3239C347.522 31.7461 349.583 32.4919 350.674 32.8648C350.864 32.9351 350.906 33.0337 350.906 33.2729V38.1769C350.906 40.351 349.865 40.9209 346.614 42.898C346.41 43.0247 346.298 43.0599 346.185 43.0669V31.2606C346.255 31.2606 346.347 31.2817 346.459 31.3239Z" fill="#737373"/>
<rect x="367.792" y="25.1719" width="437.374" height="23.7335" rx="5.08575" fill="black" fill-opacity="0.05"/>
<g clip-path="url(#clip3_100_2618)">
<path d="M527.552 41.8833H532.28C532.921 41.8833 533.234 41.5655 533.234 40.8702V37.2247C533.234 36.5989 532.976 36.2761 532.444 36.2215V34.9699C532.444 33.0975 531.217 32.1936 529.916 32.1936C528.615 32.1936 527.388 33.0975 527.388 34.9699V36.2463C526.901 36.3208 526.599 36.6387 526.599 37.2247V40.8702C526.599 41.5655 526.911 41.8833 527.552 41.8833ZM528.188 34.8656C528.188 33.619 528.987 32.9585 529.916 32.9585C530.845 32.9585 531.645 33.619 531.645 34.8656V36.2165L528.188 36.2215V34.8656Z" fill="#9E9E9E"/>
<path d="M541.516 35.3933V36.1574H538.368V35.3933H541.516ZM539.433 33.9783H540.429V39.773C540.429 39.9703 540.459 40.1192 540.52 40.2196C540.581 40.32 540.66 40.3864 540.757 40.4187C540.854 40.4509 540.958 40.4671 541.069 40.4671C541.151 40.4671 541.238 40.4599 541.327 40.4456C541.421 40.4276 541.49 40.4133 541.537 40.4025L541.542 41.215C541.464 41.2401 541.36 41.2634 541.23 41.2849C541.105 41.31 540.952 41.3226 540.773 41.3226C540.529 41.3226 540.305 41.2742 540.101 41.1773C539.896 41.0805 539.733 40.919 539.611 40.6931C539.493 40.4635 539.433 40.155 539.433 39.7676V33.9783ZM543.634 32.9506V41.215H542.639V32.9506H543.634ZM543.398 38.0836L542.983 38.0674C542.987 37.6693 543.046 37.3016 543.161 36.9644C543.276 36.6237 543.437 36.3277 543.645 36.0767C543.853 35.8256 544.101 35.6319 544.388 35.4956C544.678 35.3557 544.999 35.2857 545.351 35.2857C545.638 35.2857 545.896 35.3252 546.126 35.4041C546.355 35.4794 546.551 35.6014 546.712 35.77C546.877 35.9386 547.003 36.1574 547.089 36.4264C547.175 36.6918 547.218 37.0164 547.218 37.4002V41.215H546.217V37.3895C546.217 37.0846 546.172 36.8407 546.083 36.6577C545.993 36.4712 545.862 36.3367 545.69 36.2542C545.518 36.1681 545.306 36.1251 545.055 36.1251C544.807 36.1251 544.581 36.1771 544.377 36.2811C544.176 36.3851 544.002 36.5286 543.855 36.7115C543.712 36.8945 543.599 37.1043 543.516 37.3411C543.437 37.5742 543.398 37.8217 543.398 38.0836ZM551.08 41.3226C550.675 41.3226 550.307 41.2544 549.977 41.1181C549.65 40.9782 549.369 40.7827 549.132 40.5317C548.899 40.2806 548.72 39.9828 548.594 39.6385C548.469 39.2942 548.406 38.9175 548.406 38.5086V38.2826C548.406 37.8092 548.476 37.3877 548.616 37.0182C548.756 36.6452 548.946 36.3295 549.186 36.0713C549.426 35.813 549.699 35.6175 550.004 35.4848C550.309 35.3521 550.624 35.2857 550.951 35.2857C551.367 35.2857 551.726 35.3575 552.027 35.501C552.332 35.6444 552.581 35.8453 552.775 36.1036C552.968 36.3582 553.112 36.6595 553.205 37.0075C553.298 37.3518 553.345 37.7284 553.345 38.1374V38.5839H548.998V37.7715H552.35V37.6962C552.335 37.4379 552.282 37.1868 552.188 36.9429C552.099 36.699 551.955 36.4981 551.758 36.3403C551.561 36.1825 551.292 36.1036 550.951 36.1036C550.725 36.1036 550.517 36.152 550.327 36.2488C550.137 36.3421 549.973 36.482 549.837 36.6685C549.701 36.855 549.595 37.0828 549.52 37.3518C549.444 37.6208 549.407 37.9311 549.407 38.2826V38.5086C549.407 38.7848 549.444 39.0449 549.52 39.2888C549.598 39.5291 549.711 39.7407 549.859 39.9237C550.009 40.1066 550.19 40.2501 550.402 40.3541C550.617 40.4581 550.861 40.5101 551.134 40.5101C551.485 40.5101 551.783 40.4384 552.027 40.2949C552.271 40.1514 552.484 39.9595 552.667 39.7192L553.27 40.1981C553.144 40.3882 552.985 40.5693 552.791 40.7415C552.597 40.9137 552.359 41.0536 552.075 41.1612C551.795 41.2688 551.464 41.3226 551.08 41.3226ZM558.133 40.0851V32.9506H559.133V41.215H558.219L558.133 40.0851ZM554.216 38.3687V38.2557C554.216 37.8109 554.269 37.4074 554.377 37.0451C554.488 36.6793 554.644 36.3654 554.845 36.1036C555.05 35.8417 555.292 35.6408 555.572 35.501C555.855 35.3575 556.171 35.2857 556.518 35.2857C556.884 35.2857 557.204 35.3503 557.476 35.4794C557.752 35.605 557.986 35.7897 558.176 36.0336C558.369 36.2739 558.522 36.5645 558.633 36.9052C558.744 37.246 558.821 37.6316 558.864 38.062V38.557C558.825 38.9839 558.748 39.3677 558.633 39.7084C558.522 40.0492 558.369 40.3397 558.176 40.5801C557.986 40.8204 557.752 41.0051 557.476 41.1343C557.2 41.2598 556.877 41.3226 556.508 41.3226C556.167 41.3226 555.855 41.249 555.572 41.102C555.292 40.9549 555.05 40.7487 554.845 40.4832C554.644 40.2178 554.488 39.9057 554.377 39.547C554.269 39.1848 554.216 38.792 554.216 38.3687ZM555.216 38.2557V38.3687C555.216 38.6593 555.245 38.9319 555.302 39.1865C555.363 39.4412 555.457 39.6654 555.582 39.8591C555.708 40.0528 555.867 40.2052 556.061 40.3164C556.255 40.424 556.486 40.4778 556.755 40.4778C557.085 40.4778 557.356 40.4079 557.568 40.268C557.783 40.1281 557.955 39.9434 558.084 39.7138C558.213 39.4843 558.314 39.235 558.385 38.9659V37.6693C558.342 37.472 558.28 37.2819 558.197 37.0989C558.118 36.9124 558.014 36.7474 557.885 36.6039C557.76 36.4569 557.604 36.3403 557.417 36.2542C557.234 36.1681 557.017 36.1251 556.766 36.1251C556.493 36.1251 556.258 36.1825 556.061 36.2973C555.867 36.4084 555.708 36.5627 555.582 36.76C555.457 36.9537 555.363 37.1796 555.302 37.4379C555.245 37.6926 555.216 37.9652 555.216 38.2557ZM563.055 41.3226C562.649 41.3226 562.282 41.2544 561.952 41.1181C561.625 40.9782 561.344 40.7827 561.107 40.5317C560.874 40.2806 560.694 39.9828 560.569 39.6385C560.443 39.2942 560.381 38.9175 560.381 38.5086V38.2826C560.381 37.8092 560.451 37.3877 560.59 37.0182C560.73 36.6452 560.92 36.3295 561.161 36.0713C561.401 35.813 561.674 35.6175 561.979 35.4848C562.283 35.3521 562.599 35.2857 562.926 35.2857C563.342 35.2857 563.7 35.3575 564.002 35.501C564.307 35.6444 564.556 35.8453 564.749 36.1036C564.943 36.3582 565.087 36.6595 565.18 37.0075C565.273 37.3518 565.32 37.7284 565.32 38.1374V38.5839H560.972V37.7715H564.324V37.6962C564.31 37.4379 564.256 37.1868 564.163 36.9429C564.073 36.699 563.93 36.4981 563.733 36.3403C563.535 36.1825 563.266 36.1036 562.926 36.1036C562.7 36.1036 562.492 36.152 562.301 36.2488C562.111 36.3421 561.948 36.482 561.812 36.6685C561.675 36.855 561.57 37.0828 561.494 37.3518C561.419 37.6208 561.381 37.9311 561.381 38.2826V38.5086C561.381 38.7848 561.419 39.0449 561.494 39.2888C561.573 39.5291 561.686 39.7407 561.833 39.9237C561.984 40.1066 562.165 40.2501 562.377 40.3541C562.592 40.4581 562.836 40.5101 563.108 40.5101C563.46 40.5101 563.758 40.4384 564.002 40.2949C564.246 40.1514 564.459 39.9595 564.642 39.7192L565.244 40.1981C565.119 40.3882 564.959 40.5693 564.766 40.7415C564.572 40.9137 564.333 41.0536 564.05 41.1612C563.77 41.2688 563.438 41.3226 563.055 41.3226ZM569.828 39.6708C569.828 39.5273 569.795 39.3946 569.731 39.2726C569.67 39.1471 569.542 39.0341 569.349 38.9337C569.159 38.8296 568.872 38.74 568.488 38.6646C568.165 38.5965 567.873 38.5158 567.611 38.4225C567.353 38.3293 567.132 38.2163 566.949 38.0836C566.77 37.9508 566.632 37.7948 566.535 37.6155C566.438 37.4361 566.389 37.2263 566.389 36.9859C566.389 36.7564 566.44 36.5394 566.54 36.3349C566.644 36.1305 566.789 35.9493 566.976 35.7915C567.166 35.6337 567.394 35.5099 567.659 35.4202C567.925 35.3306 568.221 35.2857 568.547 35.2857C569.013 35.2857 569.411 35.3682 569.741 35.5332C570.071 35.6982 570.324 35.9188 570.5 36.195C570.676 36.4676 570.764 36.7707 570.764 37.1043H569.768C569.768 36.9429 569.72 36.7869 569.623 36.6362C569.53 36.482 569.392 36.3546 569.209 36.2542C569.029 36.1538 568.809 36.1036 568.547 36.1036C568.271 36.1036 568.047 36.1466 567.874 36.2327C567.706 36.3152 567.582 36.421 567.503 36.5501C567.428 36.6793 567.39 36.8156 567.39 36.959C567.39 37.0667 567.408 37.1635 567.444 37.2496C567.484 37.3321 567.552 37.4092 567.649 37.4809C567.745 37.5491 567.882 37.6137 568.057 37.6746C568.233 37.7356 568.457 37.7966 568.73 37.8576C569.207 37.9652 569.6 38.0943 569.908 38.245C570.217 38.3956 570.446 38.5803 570.597 38.7992C570.748 39.018 570.823 39.2834 570.823 39.5955C570.823 39.8501 570.769 40.0833 570.662 40.2949C570.558 40.5065 570.405 40.6895 570.204 40.8437C570.007 40.9944 569.77 41.1127 569.494 41.1988C569.221 41.2813 568.915 41.3226 568.574 41.3226C568.061 41.3226 567.627 41.2311 567.272 41.0482C566.917 40.8652 566.648 40.6285 566.465 40.338C566.282 40.0474 566.19 39.7407 566.19 39.4179H567.191C567.206 39.6905 567.284 39.9075 567.428 40.0689C567.571 40.2268 567.747 40.3397 567.955 40.4079C568.163 40.4725 568.369 40.5047 568.574 40.5047C568.847 40.5047 569.074 40.4689 569.257 40.3971C569.444 40.3254 569.585 40.2268 569.682 40.1012C569.779 39.9757 569.828 39.8322 569.828 39.6708ZM573.168 35.3933V41.215H572.167V35.3933H573.168ZM572.092 33.8492C572.092 33.6877 572.14 33.5514 572.237 33.4402C572.337 33.3291 572.484 33.2735 572.678 33.2735C572.868 33.2735 573.014 33.3291 573.114 33.4402C573.218 33.5514 573.27 33.6877 573.27 33.8492C573.27 34.0034 573.218 34.1361 573.114 34.2473C573.014 34.3549 572.868 34.4087 572.678 34.4087C572.484 34.4087 572.337 34.3549 572.237 34.2473C572.14 34.1361 572.092 34.0034 572.092 33.8492ZM578.493 35.3933H579.397V41.0912C579.397 41.6042 579.293 42.0418 579.085 42.404C578.877 42.7663 578.587 43.0407 578.214 43.2272C577.844 43.4174 577.417 43.5124 576.933 43.5124C576.732 43.5124 576.495 43.4801 576.223 43.4156C575.954 43.3546 575.688 43.2488 575.427 43.0981C575.168 42.9511 574.951 42.752 574.776 42.5009L575.297 41.909C575.541 42.2032 575.796 42.4076 576.061 42.5224C576.33 42.6372 576.596 42.6946 576.858 42.6946C577.173 42.6946 577.446 42.6354 577.676 42.517C577.905 42.3987 578.083 42.2229 578.208 41.9897C578.337 41.7602 578.402 41.4768 578.402 41.1396V36.6739L578.493 35.3933ZM574.485 38.3687V38.2557C574.485 37.8109 574.537 37.4074 574.641 37.0451C574.749 36.6793 574.901 36.3654 575.098 36.1036C575.299 35.8417 575.541 35.6408 575.825 35.501C576.108 35.3575 576.427 35.2857 576.782 35.2857C577.148 35.2857 577.468 35.3503 577.74 35.4794C578.016 35.605 578.249 35.7897 578.44 36.0336C578.633 36.2739 578.786 36.5645 578.897 36.9052C579.008 37.246 579.085 37.6316 579.128 38.062V38.557C579.089 38.9839 579.012 39.3677 578.897 39.7084C578.786 40.0492 578.633 40.3397 578.44 40.5801C578.249 40.8204 578.016 41.0051 577.74 41.1343C577.464 41.2598 577.141 41.3226 576.772 41.3226C576.424 41.3226 576.108 41.249 575.825 41.102C575.545 40.9549 575.305 40.7487 575.104 40.4832C574.903 40.2178 574.749 39.9057 574.641 39.547C574.537 39.1848 574.485 38.792 574.485 38.3687ZM575.48 38.2557V38.3687C575.48 38.6593 575.509 38.9319 575.566 39.1865C575.627 39.4412 575.719 39.6654 575.841 39.8591C575.966 40.0528 576.126 40.2052 576.32 40.3164C576.513 40.424 576.745 40.4778 577.014 40.4778C577.344 40.4778 577.616 40.4079 577.832 40.268C578.047 40.1281 578.217 39.9434 578.343 39.7138C578.472 39.4843 578.572 39.235 578.644 38.9659V37.6693C578.605 37.472 578.544 37.2819 578.461 37.0989C578.382 36.9124 578.278 36.7474 578.149 36.6039C578.023 36.4569 577.867 36.3403 577.681 36.2542C577.494 36.1681 577.276 36.1251 577.025 36.1251C576.752 36.1251 576.517 36.1825 576.32 36.2973C576.126 36.4084 575.966 36.5627 575.841 36.76C575.719 36.9537 575.627 37.1796 575.566 37.4379C575.509 37.6926 575.48 37.9652 575.48 38.2557ZM581.861 36.6362V41.215H580.865V35.3933H581.807L581.861 36.6362ZM581.624 38.0836L581.209 38.0674C581.213 37.6693 581.272 37.3016 581.387 36.9644C581.502 36.6237 581.663 36.3277 581.871 36.0767C582.079 35.8256 582.327 35.6319 582.614 35.4956C582.904 35.3557 583.225 35.2857 583.577 35.2857C583.864 35.2857 584.122 35.3252 584.352 35.4041C584.581 35.4794 584.777 35.6014 584.938 35.77C585.103 35.9386 585.229 36.1574 585.315 36.4264C585.401 36.6918 585.444 37.0164 585.444 37.4002V41.215H584.443V37.3895C584.443 37.0846 584.398 36.8407 584.309 36.6577C584.219 36.4712 584.088 36.3367 583.916 36.2542C583.744 36.1681 583.532 36.1251 583.281 36.1251C583.033 36.1251 582.807 36.1771 582.603 36.2811C582.402 36.3851 582.228 36.5286 582.081 36.7115C581.938 36.8945 581.825 37.1043 581.742 37.3411C581.663 37.5742 581.624 37.8217 581.624 38.0836ZM589.328 41.3226C588.922 41.3226 588.555 41.2544 588.225 41.1181C587.898 40.9782 587.617 40.7827 587.38 40.5317C587.147 40.2806 586.967 39.9828 586.842 39.6385C586.716 39.2942 586.653 38.9175 586.653 38.5086V38.2826C586.653 37.8092 586.723 37.3877 586.863 37.0182C587.003 36.6452 587.193 36.3295 587.434 36.0713C587.674 35.813 587.947 35.6175 588.251 35.4848C588.556 35.3521 588.872 35.2857 589.198 35.2857C589.614 35.2857 589.973 35.3575 590.274 35.501C590.579 35.6444 590.829 35.8453 591.022 36.1036C591.216 36.3582 591.36 36.6595 591.453 37.0075C591.546 37.3518 591.593 37.7284 591.593 38.1374V38.5839H587.245V37.7715H590.597V37.6962C590.583 37.4379 590.529 37.1868 590.436 36.9429C590.346 36.699 590.203 36.4981 590.005 36.3403C589.808 36.1825 589.539 36.1036 589.198 36.1036C588.972 36.1036 588.764 36.152 588.574 36.2488C588.384 36.3421 588.221 36.482 588.085 36.6685C587.948 36.855 587.843 37.0828 587.767 37.3518C587.692 37.6208 587.654 37.9311 587.654 38.2826V38.5086C587.654 38.7848 587.692 39.0449 587.767 39.2888C587.846 39.5291 587.959 39.7407 588.106 39.9237C588.257 40.1066 588.438 40.2501 588.65 40.3541C588.865 40.4581 589.109 40.5101 589.381 40.5101C589.733 40.5101 590.031 40.4384 590.274 40.2949C590.518 40.1514 590.732 39.9595 590.915 39.7192L591.517 40.1981C591.392 40.3882 591.232 40.5693 591.038 40.7415C590.845 40.9137 590.606 41.0536 590.323 41.1612C590.043 41.2688 589.711 41.3226 589.328 41.3226ZM593.706 36.308V41.215H592.711V35.3933H593.679L593.706 36.308ZM595.525 35.3611L595.519 36.2865C595.437 36.2686 595.358 36.2578 595.283 36.2542C595.211 36.247 595.128 36.2434 595.035 36.2434C594.806 36.2434 594.603 36.2793 594.427 36.3511C594.251 36.4228 594.102 36.5232 593.981 36.6524C593.859 36.7815 593.762 36.9357 593.69 37.1151C593.622 37.2908 593.577 37.4845 593.555 37.6962L593.276 37.8576C593.276 37.5061 593.31 37.1761 593.378 36.8676C593.45 36.5591 593.559 36.2865 593.706 36.0498C593.853 35.8094 594.04 35.6229 594.266 35.4902C594.495 35.3539 594.768 35.2857 595.084 35.2857C595.155 35.2857 595.238 35.2947 595.331 35.3126C595.424 35.327 595.489 35.3431 595.525 35.3611ZM599.79 39.6708C599.79 39.5273 599.758 39.3946 599.694 39.2726C599.633 39.1471 599.505 39.0341 599.312 38.9337C599.121 38.8296 598.834 38.74 598.451 38.6646C598.128 38.5965 597.835 38.5158 597.574 38.4225C597.315 38.3293 597.095 38.2163 596.912 38.0836C596.732 37.9508 596.594 37.7948 596.498 37.6155C596.401 37.4361 596.352 37.2263 596.352 36.9859C596.352 36.7564 596.402 36.5394 596.503 36.3349C596.607 36.1305 596.752 35.9493 596.939 35.7915C597.129 35.6337 597.357 35.5099 597.622 35.4202C597.887 35.3306 598.183 35.2857 598.51 35.2857C598.976 35.2857 599.374 35.3682 599.704 35.5332C600.034 35.6982 600.287 35.9188 600.463 36.195C600.639 36.4676 600.727 36.7707 600.727 37.1043H599.731C599.731 36.9429 599.683 36.7869 599.586 36.6362C599.493 36.482 599.355 36.3546 599.172 36.2542C598.992 36.1538 598.772 36.1036 598.51 36.1036C598.234 36.1036 598.009 36.1466 597.837 36.2327C597.669 36.3152 597.545 36.421 597.466 36.5501C597.391 36.6793 597.353 36.8156 597.353 36.959C597.353 37.0667 597.371 37.1635 597.407 37.2496C597.446 37.3321 597.514 37.4092 597.611 37.4809C597.708 37.5491 597.844 37.6137 598.02 37.6746C598.196 37.7356 598.42 37.7966 598.693 37.8576C599.17 37.9652 599.563 38.0943 599.871 38.245C600.18 38.3956 600.409 38.5803 600.56 38.7992C600.71 39.018 600.786 39.2834 600.786 39.5955C600.786 39.8501 600.732 40.0833 600.624 40.2949C600.52 40.5065 600.368 40.6895 600.167 40.8437C599.97 40.9944 599.733 41.1127 599.457 41.1988C599.184 41.2813 598.877 41.3226 598.537 41.3226C598.024 41.3226 597.59 41.2311 597.235 41.0482C596.88 40.8652 596.611 40.6285 596.428 40.338C596.245 40.0474 596.153 39.7407 596.153 39.4179H597.154C597.168 39.6905 597.247 39.9075 597.391 40.0689C597.534 40.2268 597.71 40.3397 597.918 40.4079C598.126 40.4725 598.332 40.5047 598.537 40.5047C598.809 40.5047 599.037 40.4689 599.22 40.3971C599.407 40.3254 599.548 40.2268 599.645 40.1012C599.742 39.9757 599.79 39.8322 599.79 39.6708ZM603.044 32.9506V41.215H602.049V32.9506H603.044ZM602.808 38.0836L602.393 38.0674C602.397 37.6693 602.456 37.3016 602.571 36.9644C602.686 36.6237 602.847 36.3277 603.055 36.0767C603.263 35.8256 603.511 35.6319 603.798 35.4956C604.088 35.3557 604.409 35.2857 604.761 35.2857C605.048 35.2857 605.306 35.3252 605.536 35.4041C605.765 35.4794 605.961 35.6014 606.122 35.77C606.287 35.9386 606.413 36.1574 606.499 36.4264C606.585 36.6918 606.628 37.0164 606.628 37.4002V41.215H605.627V37.3895C605.627 37.0846 605.582 36.8407 605.493 36.6577C605.403 36.4712 605.272 36.3367 605.1 36.2542C604.928 36.1681 604.716 36.1251 604.465 36.1251C604.217 36.1251 603.991 36.1771 603.787 36.2811C603.586 36.3851 603.412 36.5286 603.265 36.7115C603.122 36.8945 603.009 37.1043 602.926 37.3411C602.847 37.5742 602.808 37.8217 602.808 38.0836ZM609.156 35.3933V41.215H608.155V35.3933H609.156ZM608.08 33.8492C608.08 33.6877 608.128 33.5514 608.225 33.4402C608.325 33.3291 608.472 33.2735 608.666 33.2735C608.856 33.2735 609.001 33.3291 609.102 33.4402C609.206 33.5514 609.258 33.6877 609.258 33.8492C609.258 34.0034 609.206 34.1361 609.102 34.2473C609.001 34.3549 608.856 34.4087 608.666 34.4087C608.472 34.4087 608.325 34.3549 608.225 34.2473C608.128 34.1361 608.08 34.0034 608.08 33.8492ZM611.705 36.5125V43.4532H610.704V35.3933H611.619L611.705 36.5125ZM615.627 38.2557V38.3687C615.627 38.792 615.577 39.1848 615.477 39.547C615.376 39.9057 615.229 40.2178 615.035 40.4832C614.845 40.7487 614.61 40.9549 614.331 41.102C614.051 41.249 613.73 41.3226 613.367 41.3226C612.998 41.3226 612.672 41.2616 612.388 41.1396C612.105 41.0177 611.865 40.8401 611.667 40.607C611.47 40.3738 611.312 40.094 611.194 39.7676C611.079 39.4412 611 39.0736 610.957 38.6646V38.062C611 37.6316 611.081 37.246 611.199 36.9052C611.318 36.5645 611.474 36.2739 611.667 36.0336C611.865 35.7897 612.103 35.605 612.383 35.4794C612.663 35.3503 612.985 35.2857 613.351 35.2857C613.717 35.2857 614.042 35.3575 614.325 35.501C614.609 35.6408 614.847 35.8417 615.041 36.1036C615.234 36.3654 615.38 36.6793 615.477 37.0451C615.577 37.4074 615.627 37.8109 615.627 38.2557ZM614.626 38.3687V38.2557C614.626 37.9652 614.596 37.6926 614.535 37.4379C614.474 37.1796 614.379 36.9537 614.25 36.76C614.124 36.5627 613.963 36.4084 613.766 36.2973C613.568 36.1825 613.333 36.1251 613.061 36.1251C612.81 36.1251 612.591 36.1681 612.404 36.2542C612.221 36.3403 612.065 36.4569 611.936 36.6039C611.807 36.7474 611.701 36.9124 611.619 37.0989C611.54 37.2819 611.481 37.472 611.441 37.6693V39.0628C611.513 39.3139 611.613 39.5506 611.743 39.773C611.872 39.9918 612.044 40.1694 612.259 40.3057C612.474 40.4384 612.745 40.5047 613.072 40.5047C613.341 40.5047 613.572 40.4492 613.766 40.338C613.963 40.2232 614.124 40.0671 614.25 39.8699C614.379 39.6726 614.474 39.4466 614.535 39.1919C614.596 38.9337 614.626 38.6593 614.626 38.3687ZM616.869 40.6877C616.869 40.5191 616.921 40.3774 617.025 40.2626C617.133 40.1443 617.287 40.0851 617.488 40.0851C617.689 40.0851 617.841 40.1443 617.945 40.2626C618.053 40.3774 618.107 40.5191 618.107 40.6877C618.107 40.8527 618.053 40.9926 617.945 41.1074C617.841 41.2221 617.689 41.2795 617.488 41.2795C617.287 41.2795 617.133 41.2221 617.025 41.1074C616.921 40.9926 616.869 40.8527 616.869 40.6877ZM622.044 40.5047C622.281 40.5047 622.5 40.4563 622.7 40.3595C622.901 40.2626 623.066 40.1299 623.195 39.9613C623.325 39.7892 623.398 39.5937 623.416 39.3749H624.363C624.345 39.7192 624.228 40.0402 624.013 40.338C623.802 40.6321 623.524 40.8706 623.179 41.0536C622.835 41.2329 622.457 41.3226 622.044 41.3226C621.606 41.3226 621.224 41.2455 620.898 41.0912C620.575 40.937 620.306 40.7253 620.091 40.4563C619.879 40.1873 619.72 39.8788 619.612 39.5309C619.508 39.1794 619.456 38.8081 619.456 38.4171V38.1912C619.456 37.8002 619.508 37.4307 619.612 37.0828C619.72 36.7313 619.879 36.421 620.091 36.152C620.306 35.883 620.575 35.6713 620.898 35.5171C621.224 35.3629 621.606 35.2857 622.044 35.2857C622.5 35.2857 622.898 35.379 623.238 35.5655C623.579 35.7485 623.846 35.9995 624.04 36.3188C624.237 36.6344 624.345 36.9931 624.363 37.3949H623.416C623.398 37.1545 623.33 36.9375 623.212 36.7438C623.097 36.5501 622.939 36.3959 622.738 36.2811C622.541 36.1627 622.309 36.1036 622.044 36.1036C621.739 36.1036 621.483 36.1645 621.275 36.2865C621.07 36.4049 620.907 36.5663 620.785 36.7707C620.667 36.9716 620.581 37.1958 620.527 37.4433C620.477 37.6872 620.451 37.9365 620.451 38.1912V38.4171C620.451 38.6718 620.477 38.9229 620.527 39.1704C620.577 39.4179 620.661 39.6421 620.78 39.843C620.902 40.0438 621.065 40.2052 621.269 40.3272C621.477 40.4456 621.736 40.5047 622.044 40.5047ZM625.174 38.3687V38.245C625.174 37.8253 625.235 37.4361 625.357 37.0774C625.479 36.7151 625.655 36.4013 625.885 36.1358C626.114 35.8668 626.392 35.6588 626.719 35.5117C627.045 35.3611 627.411 35.2857 627.816 35.2857C628.225 35.2857 628.593 35.3611 628.919 35.5117C629.249 35.6588 629.529 35.8668 629.759 36.1358C629.992 36.4013 630.169 36.7151 630.291 37.0774C630.413 37.4361 630.474 37.8253 630.474 38.245V38.3687C630.474 38.7884 630.413 39.1776 630.291 39.5363C630.169 39.895 629.992 40.2088 629.759 40.4778C629.529 40.7433 629.251 40.9513 628.925 41.102C628.602 41.249 628.236 41.3226 627.827 41.3226C627.418 41.3226 627.05 41.249 626.724 41.102C626.398 40.9513 626.118 40.7433 625.885 40.4778C625.655 40.2088 625.479 39.895 625.357 39.5363C625.235 39.1776 625.174 38.7884 625.174 38.3687ZM626.17 38.245V38.3687C626.17 38.6593 626.204 38.9337 626.272 39.1919C626.34 39.4466 626.442 39.6726 626.579 39.8699C626.719 40.0671 626.893 40.2232 627.101 40.338C627.309 40.4492 627.551 40.5047 627.827 40.5047C628.1 40.5047 628.338 40.4492 628.543 40.338C628.751 40.2232 628.923 40.0671 629.059 39.8699C629.195 39.6726 629.298 39.4466 629.366 39.1919C629.438 38.9337 629.473 38.6593 629.473 38.3687V38.245C629.473 37.958 629.438 37.6872 629.366 37.4325C629.298 37.1743 629.194 36.9465 629.054 36.7492C628.917 36.5483 628.745 36.3905 628.537 36.2757C628.333 36.161 628.092 36.1036 627.816 36.1036C627.544 36.1036 627.303 36.161 627.095 36.2757C626.891 36.3905 626.719 36.5483 626.579 36.7492C626.442 36.9465 626.34 37.1743 626.272 37.4325C626.204 37.6872 626.17 37.958 626.17 38.245ZM632.668 36.5501V41.215H631.668V35.3933H632.615L632.668 36.5501ZM632.464 38.0836L632.001 38.0674C632.005 37.6693 632.057 37.3016 632.157 36.9644C632.258 36.6237 632.406 36.3277 632.604 36.0767C632.801 35.8256 633.047 35.6319 633.341 35.4956C633.635 35.3557 633.976 35.2857 634.363 35.2857C634.636 35.2857 634.887 35.3252 635.116 35.4041C635.346 35.4794 635.545 35.5996 635.714 35.7646C635.882 35.9296 636.013 36.1412 636.106 36.3995C636.2 36.6577 636.246 36.9698 636.246 37.3357V41.215H635.251V37.3841C635.251 37.0792 635.199 36.8353 635.095 36.6524C634.994 36.4694 634.851 36.3367 634.664 36.2542C634.478 36.1681 634.259 36.1251 634.008 36.1251C633.714 36.1251 633.468 36.1771 633.271 36.2811C633.074 36.3851 632.916 36.5286 632.797 36.7115C632.679 36.8945 632.593 37.1043 632.539 37.3411C632.489 37.5742 632.464 37.8217 632.464 38.0836ZM636.236 37.5348L635.568 37.7392C635.572 37.42 635.624 37.1133 635.724 36.8192C635.828 36.525 635.977 36.2632 636.171 36.0336C636.368 35.804 636.61 35.6229 636.897 35.4902C637.184 35.3539 637.512 35.2857 637.882 35.2857C638.194 35.2857 638.47 35.327 638.711 35.4095C638.954 35.492 639.159 35.6193 639.324 35.7915C639.492 35.9601 639.62 36.1771 639.706 36.4425C639.792 36.708 639.835 37.0236 639.835 37.3895V41.215H638.834V37.3787C638.834 37.0523 638.782 36.7994 638.678 36.6201C638.578 36.4371 638.434 36.3098 638.248 36.2381C638.065 36.1627 637.846 36.1251 637.591 36.1251C637.373 36.1251 637.179 36.1627 637.01 36.2381C636.842 36.3134 636.7 36.4174 636.585 36.5501C636.47 36.6793 636.383 36.8281 636.322 36.9967C636.264 37.1653 636.236 37.3446 636.236 37.5348Z" fill="#4C4C4C"/>
</g>
<path d="M795.235 36.7119C795.359 36.7119 795.454 36.6722 795.523 36.5977L797.569 34.5416C797.659 34.4571 797.694 34.3578 797.694 34.2436C797.694 34.1343 797.649 34.025 797.569 33.9456L795.523 31.8696C795.454 31.7901 795.354 31.7504 795.235 31.7504C795.012 31.7504 794.843 31.9292 794.843 32.1576C794.843 32.2619 794.883 32.3613 794.952 32.4407L796.278 33.742C795.995 33.6923 795.707 33.6625 795.419 33.6625C792.985 33.6625 791.029 35.6143 791.029 38.048C791.029 40.4865 792.985 42.4433 795.419 42.4433C797.853 42.4433 799.804 40.4865 799.804 38.048C799.804 37.8096 799.636 37.6357 799.392 37.6357C799.159 37.6357 799.005 37.8096 799.005 38.048C799.005 40.0445 797.411 41.6437 795.419 41.6437C793.427 41.6437 791.828 40.0445 791.828 38.048C791.828 36.0564 793.427 34.4621 795.419 34.4621C795.796 34.4621 796.144 34.4919 796.442 34.5565L794.957 36.0315C794.883 36.111 794.843 36.2103 794.843 36.3146C794.843 36.5431 795.012 36.7119 795.235 36.7119Z" fill="#797979"/>
</g>
</g>
</g>
</g>
<defs>
<filter id="filter0_d_100_2618" x="0.783596" y="0.215441" width="1171.39" height="750.97" filterUnits="userSpaceOnUse" color-interpolation-filters="sRGB">
<feFlood flood-opacity="0" result="BackgroundImageFix"/>
<feColorMatrix in="SourceAlpha" type="matrix" values="0 0 0 0 0 0 0 0 0 0 0 0 0 0 0 0 0 0 127 0" result="hardAlpha"/>
<feMorphology radius="13.6473" operator="erode" in="SourceAlpha" result="effect1_dropShadow_100_2618"/>
<feOffset dy="28.4318"/>
<feGaussianBlur stdDeviation="28.4318"/>
<feColorMatrix type="matrix" values="0 0 0 0 0 0 0 0 0 0 0 0 0 0 0 0 0 0 0.25 0"/>
<feBlend mode="normal" in2="BackgroundImageFix" result="effect1_dropShadow_100_2618"/>
<feBlend mode="normal" in="SourceGraphic" in2="effect1_dropShadow_100_2618" result="shape"/>
</filter>
<filter id="filter1_di_100_2618" x="44" y="15" width="1084.96" height="45.3479" filterUnits="userSpaceOnUse" color-interpolation-filters="sRGB">
<feFlood flood-opacity="0" result="BackgroundImageFix"/>
<feColorMatrix in="SourceAlpha" type="matrix" values="0 0 0 0 0 0 0 0 0 0 0 0 0 0 0 0 0 0 127 0" result="hardAlpha"/>
<feOffset dy="0.423812"/>
<feColorMatrix type="matrix" values="0 0 0 0 0 0 0 0 0 0 0 0 0 0 0 0 0 0 0.15 0"/>
<feBlend mode="normal" in2="BackgroundImageFix" result="effect1_dropShadow_100_2618"/>
<feBlend mode="normal" in="SourceGraphic" in2="effect1_dropShadow_100_2618" result="shape"/>
<feColorMatrix in="SourceAlpha" type="matrix" values="0 0 0 0 0 0 0 0 0 0 0 0 0 0 0 0 0 0 127 0" result="hardAlpha"/>
<feOffset dy="-0.423812"/>
<feComposite in2="hardAlpha" operator="arithmetic" k2="-1" k3="1"/>
<feColorMatrix type="matrix" values="0 0 0 0 0 0 0 0 0 0 0 0 0 0 0 0 0 0 0.05 0"/>
<feBlend mode="normal" in2="shape" result="effect2_innerShadow_100_2618"/>
</filter>
<filter id="filter2_i_100_2618" x="61.8002" y="31.9528" width="10.1715" height="10.1715" filterUnits="userSpaceOnUse" color-interpolation-filters="sRGB">
<feFlood flood-opacity="0" result="BackgroundImageFix"/>
<feBlend mode="normal" in="SourceGraphic" in2="BackgroundImageFix" result="shape"/>
<feColorMatrix in="SourceAlpha" type="matrix" values="0 0 0 0 0 0 0 0 0 0 0 0 0 0 0 0 0 0 127 0" result="hardAlpha"/>
<feOffset/>
<feGaussianBlur stdDeviation="2.54287"/>
<feComposite in2="hardAlpha" operator="arithmetic" k2="-1" k3="1"/>
<feColorMatrix type="matrix" values="0 0 0 0 0.92549 0 0 0 0 0.427451 0 0 0 0 0.384314 0 0 0 1 0"/>
<feBlend mode="normal" in2="shape" result="effect1_innerShadow_100_2618"/>
</filter>
<filter id="filter3_i_100_2618" x="78.7527" y="31.953" width="10.1715" height="10.1715" filterUnits="userSpaceOnUse" color-interpolation-filters="sRGB">
<feFlood flood-opacity="0" result="BackgroundImageFix"/>
<feBlend mode="normal" in="SourceGraphic" in2="BackgroundImageFix" result="shape"/>
<feColorMatrix in="SourceAlpha" type="matrix" values="0 0 0 0 0 0 0 0 0 0 0 0 0 0 0 0 0 0 127 0" result="hardAlpha"/>
<feOffset/>
<feGaussianBlur stdDeviation="2.54287"/>
<feComposite in2="hardAlpha" operator="arithmetic" k2="-1" k3="1"/>
<feColorMatrix type="matrix" values="0 0 0 0 0.960784 0 0 0 0 0.768627 0 0 0 0 0.317647 0 0 0 1 0"/>
<feBlend mode="normal" in2="shape" result="effect1_innerShadow_100_2618"/>
</filter>
<filter id="filter4_i_100_2618" x="95.7052" y="31.953" width="10.1715" height="10.1715" filterUnits="userSpaceOnUse" color-interpolation-filters="sRGB">
<feFlood flood-opacity="0" result="BackgroundImageFix"/>
<feBlend mode="normal" in="SourceGraphic" in2="BackgroundImageFix" result="shape"/>
<feColorMatrix in="SourceAlpha" type="matrix" values="0 0 0 0 0 0 0 0 0 0 0 0 0 0 0 0 0 0 127 0" result="hardAlpha"/>
<feOffset/>
<feGaussianBlur stdDeviation="2.54287"/>
<feComposite in2="hardAlpha" operator="arithmetic" k2="-1" k3="1"/>
<feColorMatrix type="matrix" values="0 0 0 0 0.407843 0 0 0 0 0.8 0 0 0 0 0.345098 0 0 0 1 0"/>
<feBlend mode="normal" in2="shape" result="effect1_innerShadow_100_2618"/>
</filter>
<clipPath id="clip0_100_2618">
<rect x="44" y="15" width="1084.96" height="664.538" rx="8.47624" fill="white"/>
</clipPath>
<clipPath id="clip1_100_2618">
<rect width="55.9432" height="23.7335" fill="white" transform="translate(157.582 25.1719)"/>
</clipPath>
<clipPath id="clip2_100_2618">
<rect width="508.575" height="23.7335" fill="white" transform="translate(332.192 25.1719)"/>
</clipPath>
<clipPath id="clip3_100_2618">
<rect x="526.599" y="30.2149" width="119.762" height="13.6473" fill="white"/>
</clipPath>
</defs>
</svg>